<svg width="512" height="512" viewBox="0 0 512 512" fill="none" xmlns="http://www.w3.org/2000/svg">
  <rect width="512" height="512" rx="128" fill="#1D33F3"/>
  <path d="M256 128C197.726 128 150.667 175.059 150.667 233.333C150.667 291.608 197.726 338.667 256 338.667C314.274 338.667 361.333 291.608 361.333 233.333C361.333 175.059 314.274 128 256 128Z" fill="white" fill-opacity="0.2"/>
  <circle cx="256" cy="233.333" r="64" fill="white"/>
  <path d="M128 384L150 350C150 350 180 370 212 370C244 370 262 350 262 350L384 384" stroke="white" stroke-width="24" stroke-linecap="round"/>
  <circle cx="200" cy="380" r="12" fill="#1D33F3"/>
  <circle cx="256" cy="380" r="12" fill="#1D33F3"/>
  <circle cx="312" cy="380" r="12" fill="#1D33F3"/>
</svg>
